<?xml version="1.0" encoding="UTF-8"?>
<svg xmlns="http://www.w3.org/2000/svg" xmlns:xlink="http://www.w3.org/1999/xlink" width="512" height="512" viewBox="0 0 128 128"><defs><linearGradient id="a" x1="107.563" y1="110.911" x2="17.996" y2="21.343" gradientUnits="userSpaceOnUse"><stop offset="0" stop-color="#d9176c"/><stop offset="1" stop-color="#fcbc40"/></linearGradient></defs><path d="M23.916,66.791V65.469a1.75,1.75,0,0,1,3.5,0v1.322a1.75,1.75,0,0,1-3.5,0ZM110.75,102.03v3.578a5.122,5.122,0,0,1-5.116,5.116H22.366a5.122,5.122,0,0,1-5.116-5.116V102.03a5.121,5.121,0,0,1,5.116-5.115h1.55V76.544a1.75,1.75,0,0,1,3.5,0V96.915h4.84V41.587h-4.84V56.166a1.75,1.75,0,0,1-3.5,0V41.516A6.634,6.634,0,0,1,18.2,34.957V23.881a6.638,6.638,0,0,1,6.631-6.631H34.84A6.632,6.632,0,0,1,41.451,23.5H71.319A6.632,6.632,0,0,1,77.93,17.25H87.939A6.634,6.634,0,0,1,94.551,23.5H104.83a5.921,5.921,0,0,1,0,11.841H94.551a6.637,6.637,0,0,1-5.144,6.079V43.2A5.248,5.248,0,0,1,84.685,48.4v3.521a1.75,1.75,0,1,1-3.5,0V48.4A5.248,5.248,0,0,1,76.462,43.2V41.418a6.635,6.635,0,0,1-5.143-6.079H41.451a6.631,6.631,0,0,1-5.695,6.177v55.4H68.994l-.513-2.843a17.529,17.529,0,0,1-2.51-1.043l-2.739,1.9a3.25,3.25,0,0,1-4.156-.371L56.65,92.134a3.252,3.252,0,0,1-.371-4.157l1.9-2.738a17.529,17.529,0,0,1-1.043-2.51l-3.279-.591a3.252,3.252,0,0,1-2.675-3.2V75.505a3.25,3.25,0,0,1,2.676-3.2l3.278-.591a17.482,17.482,0,0,1,1.043-2.51l-1.9-2.739a3.25,3.25,0,0,1,.371-4.156l2.426-2.426a3.252,3.252,0,0,1,4.156-.372l2.739,1.9a17.529,17.529,0,0,1,2.51-1.043l.591-3.279a3.251,3.251,0,0,1,3.2-2.675H75.7a3.25,3.25,0,0,1,3.2,2.676L79.5,60.37a17.529,17.529,0,0,1,2.51,1.043l2.739-1.9a3.249,3.249,0,0,1,4.155.372l2.427,2.426a3.25,3.25,0,0,1,.371,4.156L89.8,69.2a17.529,17.529,0,0,1,1.043,2.51l3.278.591a3.25,3.25,0,0,1,2.676,3.2v3.431a3.252,3.252,0,0,1-2.675,3.2l-3.279.591a17.577,17.577,0,0,1-1.043,2.51l1.9,2.739a3.249,3.249,0,0,1-.371,4.155L88.9,94.56a3.25,3.25,0,0,1-4.156.371l-2.739-1.9a17.577,17.577,0,0,1-2.51,1.043l-.513,2.843h26.65A5.121,5.121,0,0,1,110.75,102.03ZM70.446,91a1.749,1.749,0,0,1,1.287,1.385l.747,4.14H75.5l.746-4.14A1.751,1.751,0,0,1,77.532,91a14.134,14.134,0,0,0,3.692-1.533,1.751,1.751,0,0,1,1.889.068l3.46,2.4,2.134-2.134-2.4-3.46a1.749,1.749,0,0,1-.068-1.889,14.134,14.134,0,0,0,1.533-3.692,1.751,1.751,0,0,1,1.385-1.288l4.14-.746V75.712l-4.14-.747a1.749,1.749,0,0,1-1.385-1.287,14.155,14.155,0,0,0-1.533-3.693A1.749,1.749,0,0,1,86.3,68.1l2.4-3.459L86.573,62.5l-3.459,2.4a1.753,1.753,0,0,1-1.891.068,14.1,14.1,0,0,0-3.692-1.534,1.75,1.75,0,0,1-1.287-1.384l-.746-4.14H72.48l-.747,4.14a1.749,1.749,0,0,1-1.287,1.384,14.177,14.177,0,0,0-3.692,1.534,1.749,1.749,0,0,1-1.89-.069l-3.459-2.4-2.134,2.134,2.4,3.459a1.747,1.747,0,0,1,.069,1.89,14.2,14.2,0,0,0-1.534,3.692,1.749,1.749,0,0,1-1.384,1.287l-4.14.747V78.73l4.14.746a1.75,1.75,0,0,1,1.384,1.287,14.148,14.148,0,0,0,1.534,3.692,1.751,1.751,0,0,1-.068,1.891l-2.4,3.459,2.134,2.134,3.459-2.4a1.749,1.749,0,0,1,1.889-.068A14.155,14.155,0,0,0,70.446,91ZM85.907,41.587H79.962V43.2a1.762,1.762,0,0,0,1.76,1.759h2.425a1.762,1.762,0,0,0,1.76-1.759ZM104.83,27H94.57v4.841h10.26a2.421,2.421,0,0,0,0-4.841ZM74.8,25.248v9.709a3.134,3.134,0,0,0,3.131,3.13H87.939a3.134,3.134,0,0,0,3.131-3.13V23.881a3.134,3.134,0,0,0-3.131-3.131H77.93A3.134,3.134,0,0,0,74.8,23.881ZM71.3,27H41.471v4.841H71.3ZM34.006,38.087h.834a3.134,3.134,0,0,0,3.131-3.13V23.881A3.134,3.134,0,0,0,34.84,20.75H24.832A3.134,3.134,0,0,0,21.7,23.881V34.957a3.134,3.134,0,0,0,3.131,3.13h9.174ZM107.25,102.03a1.617,1.617,0,0,0-1.616-1.615H34.262a1.791,1.791,0,0,1-.256.025h-8.34a1.8,1.8,0,0,1-.257-.025H22.366a1.617,1.617,0,0,0-1.616,1.615v3.578a1.618,1.618,0,0,0,1.616,1.616h83.268a1.618,1.618,0,0,0,1.616-1.616ZM73.989,87.876A10.655,10.655,0,1,1,84.644,77.221,10.667,10.667,0,0,1,73.989,87.876Zm0-3.5a7.155,7.155,0,1,0-7.155-7.155A7.163,7.163,0,0,0,73.989,84.376Z" fill="url(#a)"/></svg>
